<?xml version="1.0" encoding="utf-8"?>
<!-- Generator: Adobe Illustrator 22.0.1, SVG Export Plug-In . SVG Version: 6.00 Build 0)  -->
<svg version="1.1" id="Layer_1" xmlns="http://www.w3.org/2000/svg" xmlns:xlink="http://www.w3.org/1999/xlink" x="0px" y="0px"
         viewBox="0 0 32 32" style="enable-background:new 0 0 32 32;" xml:space="preserve">
<style type="text/css">
        .st0{fill:#FFFFFF;}
</style>
<path class="st0" d="M14,16c0-1.7-0.6-3.1-1.8-4.2S9.7,10,8,10s-3.1,0.6-4.2,1.8S2,14.3,2,16s0.6,3.1,1.8,4.2C4.9,21.4,6.4,22,8,22
        s3.1-0.6,4.2-1.8C13.4,19.1,14,17.7,14,16z M30,16c0-1.7-0.6-3.1-1.8-4.2S25.7,10,24,10s-3.1,0.6-4.2,1.8C18.6,12.9,18,14.3,18,16
        s0.6,3.1,1.8,4.2c1.2,1.2,2.6,1.8,4.2,1.8s3.1-0.6,4.2-1.8C29.4,19.1,30,17.7,30,16z"/>
</svg>