<?xml version="1.0" encoding="utf-8"?>
<!-- Generator: Adobe Illustrator 22.0.1, SVG Export Plug-In . SVG Version: 6.00 Build 0)  -->
<svg version="1.1" id="Layer_1" xmlns="http://www.w3.org/2000/svg" xmlns:xlink="http://www.w3.org/1999/xlink" x="0px" y="0px"
         viewBox="0 0 32 32" style="enable-background:new 0 0 32 32;" xml:space="preserve">
<style type="text/css">
        .st0{fill:#FFFFFF;}
</style>
<path class="st0" d="M12.6,20.6c0,0.5-0.1,1-0.2,1.5s-0.4,1-0.8,1.4S10.8,24,10.3,24S9.4,23.8,9,23.4s-0.6-0.9-0.8-1.4
        S8,21.1,8,20.6s0.1-1,0.2-1.5s0.4-1,0.8-1.4s0.8-0.6,1.3-0.6s0.9,0.2,1.3,0.6s0.6,0.9,0.8,1.4S12.6,20.1,12.6,20.6z M24,20.6
        c0,0.5-0.1,1-0.2,1.5s-0.4,1-0.8,1.4S22.2,24,21.7,24s-0.9-0.2-1.3-0.6s-0.6-0.9-0.8-1.4s-0.2-1-0.2-1.5s0.1-1,0.2-1.5
        s0.4-1,0.8-1.4s0.8-0.6,1.3-0.6s0.9,0.2,1.3,0.6s0.6,0.9,0.8,1.4S24,20.1,24,20.6z M26.9,20.6c0-1.4-0.4-2.6-1.2-3.6
        s-1.9-1.5-3.3-1.5c-0.5,0-1.6,0.1-3.5,0.4C18,16,17,16,16,16s-2-0.1-2.8-0.2c-1.8-0.2-3-0.4-3.5-0.4c-1.4,0-2.5,0.5-3.3,1.5
        s-1.2,2.2-1.2,3.6c0,1,0.2,2,0.6,2.7s0.9,1.4,1.4,1.8s1.3,0.8,2.2,1.1s1.7,0.4,2.5,0.5s1.7,0.1,2.7,0.1h3c1,0,1.9,0,2.7-0.1
        s1.6-0.3,2.5-0.5s1.6-0.6,2.2-1.1s1.1-1.1,1.4-1.8S26.9,21.6,26.9,20.6z M30.9,17.5c0,2.5-0.4,4.4-1.1,5.9c-0.5,0.9-1.1,1.7-1.9,2.4
        s-1.6,1.2-2.5,1.5s-1.9,0.6-3,0.8s-2.2,0.3-3.1,0.4s-1.9,0.1-3,0.1c-0.9,0-1.8,0-2.5-0.1s-1.6-0.1-2.6-0.2S9.2,28,8.4,27.8
        s-1.6-0.5-2.4-0.9S4.4,26,3.8,25.4s-1.1-1.3-1.5-2.1c-0.7-1.5-1.1-3.4-1.1-5.9c0-2.8,0.8-5.2,2.4-7.1c-0.3-1-0.5-2-0.5-3
        C3.1,6,3.4,4.7,4,3.5c1.3,0,2.4,0.2,3.4,0.7s2.1,1.2,3.4,2.2c1.8-0.4,3.6-0.6,5.5-0.6c1.8,0,3.4,0.2,5,0.6c1.2-1,2.4-1.7,3.3-2.2
        s2.1-0.7,3.4-0.7c0.6,1.2,0.9,2.5,0.9,3.9c0,1-0.2,2-0.5,3C30,12.2,30.9,14.6,30.9,17.5L30.9,17.5z"/>
</svg>