<?xml version="1.0" encoding="utf-8"?>
<!-- Generator: Adobe Illustrator 22.0.1, SVG Export Plug-In . SVG Version: 6.00 Build 0)  -->
<svg version="1.1" id="Layer_1" xmlns="http://www.w3.org/2000/svg" xmlns:xlink="http://www.w3.org/1999/xlink" x="0px" y="0px"
         viewBox="0 0 32 32" style="enable-background:new 0 0 32 32;" xml:space="preserve">
        <style type="text/css">
                .st0{fill:#FFFFFF;}
        </style>
        <path class="st0" d="M29.4,15.9c0,2.7,0,4.5-0.1,5.5c-0.1,2.4-0.8,4.3-2.2,5.6s-3.2,2-5.6,2.2c-1,0.1-2.9,0.1-5.5,0.1
                s-4.5,0-5.5-0.1c-2.4-0.1-4.3-0.8-5.6-2.2s-2-3.2-2.2-5.6c-0.1-1-0.1-2.9-0.1-5.5s0-4.5,0.1-5.5C2.9,8,3.6,6.1,4.9,4.8
                s3.2-2,5.6-2.2c1-0.1,2.9-0.1,5.5-0.1s4.5,0,5.5,0.1c2.4,0.1,4.3,0.8,5.6,2.2s2,3.2,2.2,5.6C29.4,11.4,29.4,13.3,29.4,15.9z
                M17.4,4.9c-0.8,0-1.3,0-1.3,0s-0.5,0-1.3,0c-0.8,0-1.4,0-1.8,0c-0.4,0-1,0-1.7,0.1S9.9,5.1,9.4,5.2C8.9,5.3,8.5,5.4,8.2,5.5
                c-0.6,0.2-1.1,0.6-1.5,1s-0.8,1-1,1.5C5.5,8.4,5.4,8.8,5.3,9.3s-0.1,1.1-0.2,1.8c0,0.7,0,1.3-0.1,1.7s0,1,0,1.8s0,1.3,0,1.3
                s0,0.5,0,1.3c0,0.8,0,1.4,0,1.8c0,0.4,0,1,0.1,1.7s0.1,1.3,0.2,1.8c0.1,0.5,0.2,0.9,0.3,1.2c0.2,0.6,0.6,1.1,1,1.5s1,0.8,1.5,1
                c0.3,0.1,0.8,0.2,1.2,0.3c0.5,0.1,1.1,0.1,1.8,0.2c0.7,0,1.3,0,1.7,0.1s1,0,1.8,0c0.8,0,1.3,0,1.3,0c0.1,0,0.5,0,1.3,0
                c0.8,0,1.4,0,1.8,0c0.4,0,1,0,1.7-0.1s1.3-0.1,1.8-0.2c0.5-0.1,0.9-0.2,1.2-0.3c0.6-0.2,1.1-0.6,1.5-1s0.8-1,1-1.5
                c0.1-0.3,0.2-0.8,0.3-1.2c0.1-0.5,0.1-1.1,0.2-1.8c0-0.7,0-1.3,0.1-1.7s0-1,0-1.8c0-0.8,0-1.3,0-1.3c0-0.1,0-0.5,0-1.3
                c0-0.8,0-1.4,0-1.8c0-0.4,0-1-0.1-1.7s-0.1-1.3-0.2-1.8c-0.1-0.5-0.2-0.9-0.3-1.2c-0.2-0.6-0.6-1.1-1-1.5s-1-0.8-1.5-1
                c-0.3-0.1-0.8-0.2-1.2-0.3S21.6,5,20.9,5c-0.7,0-1.3,0-1.7-0.1C18.8,4.9,18.2,4.9,17.4,4.9z M20.9,11.1c1.3,1.3,2,3,2,4.9
                s-0.7,3.5-2,4.9s-3,2-4.9,2s-3.5-0.7-4.9-2c-1.3-1.3-2-3-2-4.9s0.7-3.5,2-4.9s3-2,4.9-2C18,9.1,19.6,9.7,20.9,11.1L20.9,11.1z
                M19.2,19.1c0.9-0.9,1.3-1.9,1.3-3.2s-0.4-2.3-1.3-3.2s-1.9-1.3-3.2-1.3s-2.3,0.4-3.2,1.3s-1.3,1.9-1.3,3.2s0.4,2.3,1.3,3.2
                s1.9,1.3,3.2,1.3S18.3,20,19.2,19.1z M24.3,7.7c0.3,0.3,0.5,0.7,0.5,1.1s-0.2,0.8-0.5,1.1c-0.3,0.3-0.7,0.5-1.1,0.5
                s-0.8-0.2-1.1-0.5c-0.3-0.3-0.5-0.7-0.5-1.1s0.2-0.8,0.5-1.1c0.3-0.3,0.7-0.5,1.1-0.5C23.7,7.2,24,7.3,24.3,7.7z"/>
</svg>