<?xml version="1.0" encoding="utf-8"?>
<!-- Generator: Adobe Illustrator 22.0.1, SVG Export Plug-In . SVG Version: 6.00 Build 0)  -->
<svg version="1.1" id="Layer_1" xmlns="http://www.w3.org/2000/svg" xmlns:xlink="http://www.w3.org/1999/xlink" x="0px" y="0px"
         viewBox="0 0 32 32" style="enable-background:new 0 0 32 32;" xml:space="preserve">
<style type="text/css">
        .st0{fill:#FFFFFF;}
</style>
<path class="st0" d="M30.1,7.3c-0.8,1.2-1.8,2.2-2.9,3c0,0.2,0,0.4,0,0.8c0,1.5-0.2,3.1-0.7,4.6s-1.1,3-2.1,4.4
        c-0.9,1.4-2,2.7-3.3,3.8c-1.3,1.1-2.8,2-4.6,2.6s-3.7,1-5.8,1c-3.2,0-6.2-0.9-8.9-2.6c0.4,0,0.9,0.1,1.4,0.1c2.7,0,5.1-0.8,7.2-2.5
        c-1.2,0-2.4-0.4-3.4-1.2c-1-0.7-1.7-1.7-2-2.8c0.4,0.1,0.8,0.1,1.1,0.1c0.5,0,1-0.1,1.5-0.2c-1.3-0.3-2.4-0.9-3.3-2
        s-1.3-2.3-1.3-3.7v-0.1c0.8,0.5,1.7,0.7,2.6,0.7c-0.8-0.5-1.4-1.2-1.9-2.1S3.1,9.5,3.1,8.5c0-1,0.3-2,0.8-2.9
        c1.4,1.8,3.2,3.2,5.3,4.3s4.3,1.7,6.6,1.8c-0.1-0.5-0.1-0.9-0.1-1.3c0-1.6,0.6-3,1.7-4.1c1.1-1.1,2.5-1.7,4.1-1.7
        c1.7,0,3.1,0.6,4.2,1.8c1.3-0.2,2.5-0.7,3.7-1.4c-0.4,1.4-1.3,2.4-2.5,3.2C27.9,8.1,29,7.8,30.1,7.3L30.1,7.3z"/>
</svg>