<svg id="Layer_1" data-name="Layer 1" xmlns="http://www.w3.org/2000/svg" viewBox="0 0 340.12 119.51"><defs><style>.cls-1{fill:#fff;stroke:#fff;stroke-linecap:round;stroke-linejoin:round;}</style></defs><title>Artboard 1</title><path class="cls-1" d="M116.07,2.8a2.82,2.82,0,0,0-2.82,2.82V56.7H8.28a2.82,2.82,0,1,0,0,5.64h105v51.08a2.83,2.83,0,0,0,5.65,0V5.62A2.83,2.83,0,0,0,116.07,2.8Z"/><path class="cls-1" d="M133.85,19.41a2.82,2.82,0,0,0-4,4l76.22,76.23a2.84,2.84,0,0,0,2,.82,2.8,2.8,0,0,0,2-.82,2.82,2.82,0,0,0,0-4Z"/><path class="cls-1" d="M331.66,110.59h-105V5.62a2.83,2.83,0,0,0-5.65,0v107.8a2.83,2.83,0,0,0,2.83,2.82H331.66a2.83,2.83,0,1,0,0-5.65Z"/></svg>